<svg width="32" height="32" viewBox="0 0 32 32" fill="none" xmlns="http://www.w3.org/2000/svg">
<rect width="32" height="32" fill="white"/>
<path d="M9.30143 15.3717C9.33114 15.3582 9.37706 15.3433 9.43918 15.3271C9.50401 15.3082 9.56884 15.2987 9.63367 15.2987C9.74712 15.2987 9.84166 15.3163 9.91729 15.3514C9.99292 15.3838 10.0388 15.4324 10.055 15.4973C10.0848 15.608 10.1118 15.712 10.1361 15.8093C10.1631 15.9038 10.1888 15.9956 10.2131 16.0848C10.2374 16.1712 10.2603 16.2576 10.2819 16.3441C10.3063 16.4305 10.3292 16.521 10.3508 16.6155H10.3711C10.3954 16.4508 10.417 16.2941 10.4359 16.1455C10.4548 15.9943 10.4724 15.8471 10.4886 15.7039C10.5048 15.558 10.521 15.4149 10.5372 15.2744C10.5534 15.1313 10.5696 14.9868 10.5858 14.8409C10.6858 14.7842 10.7925 14.7558 10.9059 14.7558C11.0059 14.7558 11.0923 14.7774 11.1652 14.8206C11.2382 14.8638 11.2746 14.9368 11.2746 15.0394C11.2746 15.0988 11.2679 15.1839 11.2544 15.2947C11.2436 15.4027 11.2273 15.5243 11.2057 15.6593C11.1868 15.7944 11.1639 15.9362 11.1369 16.0848C11.1098 16.2333 11.0815 16.3751 11.0518 16.5102C11.0221 16.6453 10.991 16.7682 10.9586 16.8789C10.9289 16.987 10.9005 17.0707 10.8735 17.1301C10.833 17.1679 10.7668 17.199 10.675 17.2233C10.5831 17.2476 10.4886 17.2598 10.3913 17.2598C10.2644 17.2598 10.1563 17.2436 10.0672 17.2111C9.98077 17.176 9.92809 17.1274 9.90918 17.0653C9.87407 16.9572 9.83625 16.8289 9.79574 16.6804C9.75522 16.5318 9.712 16.3684 9.66608 16.1901C9.62827 16.3657 9.5891 16.5372 9.54858 16.7047C9.50806 16.8722 9.4716 17.014 9.43918 17.1301C9.39867 17.1679 9.33789 17.199 9.25686 17.2233C9.17582 17.2476 9.08668 17.2598 8.98944 17.2598C8.86789 17.2598 8.75714 17.2436 8.6572 17.2111C8.55996 17.176 8.49648 17.1274 8.46677 17.0653C8.44246 17.0167 8.41545 16.9451 8.38573 16.8505C8.35872 16.7533 8.33036 16.6439 8.30065 16.5224C8.27094 16.3981 8.23987 16.2644 8.20746 16.1212C8.17775 15.9781 8.14938 15.8349 8.12237 15.6918C8.09806 15.5486 8.0751 15.4095 8.05349 15.2744C8.03188 15.1367 8.01568 15.0111 8.00487 14.8976C8.04269 14.8625 8.09536 14.8301 8.16289 14.8004C8.23042 14.7707 8.30335 14.7558 8.38168 14.7558C8.48433 14.7558 8.56806 14.7788 8.63289 14.8247C8.70042 14.8679 8.74229 14.9422 8.75849 15.0475C8.80171 15.323 8.83683 15.5526 8.86384 15.7363C8.89355 15.92 8.91651 16.0713 8.93272 16.1901C8.95163 16.3063 8.96513 16.3968 8.97324 16.4616C8.98134 16.5264 8.98944 16.5777 8.99755 16.6155H9.0178C9.04211 16.5075 9.06507 16.4076 9.08668 16.3157C9.10829 16.2239 9.1299 16.132 9.15151 16.0402C9.17582 15.9457 9.20013 15.8457 9.22444 15.7404C9.24875 15.6323 9.27441 15.5094 9.30143 15.3717ZM12.3535 16.7209C12.3913 16.7317 12.44 16.7398 12.4994 16.7452C12.5588 16.7479 12.6155 16.7493 12.6696 16.7493C12.7776 16.7493 12.8667 16.7276 12.937 16.6844C13.0099 16.6385 13.0464 16.5683 13.0464 16.4737C13.0464 16.3846 13.0166 16.3211 12.9572 16.2833C12.8978 16.2455 12.8073 16.2266 12.6858 16.2266H12.3535V16.7209ZM12.3535 15.7323H12.6493C12.7654 15.7323 12.8492 15.7107 12.9005 15.6674C12.9545 15.6242 12.9815 15.5607 12.9815 15.477C12.9815 15.4041 12.9505 15.346 12.8883 15.3028C12.8289 15.2596 12.7384 15.238 12.6169 15.238C12.5764 15.238 12.5291 15.2393 12.4751 15.242C12.4237 15.2447 12.3832 15.2488 12.3535 15.2542V15.7323ZM12.6169 17.2922C12.571 17.2922 12.5169 17.2908 12.4548 17.2881C12.3927 17.2854 12.3279 17.28 12.2603 17.2719C12.1955 17.2638 12.1307 17.253 12.0658 17.2395C12.001 17.2287 11.9416 17.2125 11.8876 17.1909C11.739 17.1342 11.6647 17.0356 11.6647 16.8951V15.003C11.6647 14.9462 11.6796 14.903 11.7093 14.8733C11.7417 14.8409 11.7849 14.8152 11.8389 14.7963C11.9308 14.7639 12.0456 14.7409 12.1833 14.7274C12.3211 14.7112 12.4629 14.7031 12.6088 14.7031C12.9545 14.7031 13.2206 14.7612 13.407 14.8774C13.5933 14.9935 13.6865 15.1731 13.6865 15.4162C13.6865 15.5378 13.6514 15.6431 13.5812 15.7323C13.511 15.8187 13.4164 15.8822 13.2976 15.9227C13.4326 15.9605 13.5447 16.0294 13.6339 16.1293C13.7257 16.2293 13.7716 16.3549 13.7716 16.5061C13.7716 16.7736 13.6717 16.9721 13.4718 17.1018C13.2746 17.2287 12.9896 17.2922 12.6169 17.2922Z" fill="url(#paint0_linear_184_25)"/>
<path d="M15.4881 15.2663C15.2801 15.2663 15.1207 15.3298 15.0099 15.4568C14.8992 15.5837 14.8438 15.7633 14.8438 15.9956C14.8438 16.2306 14.9046 16.4116 15.0262 16.5386C15.1504 16.6655 15.3165 16.729 15.5245 16.729C15.6353 16.729 15.7285 16.7141 15.8041 16.6844C15.8824 16.6547 15.9567 16.6209 16.0269 16.5831C16.0729 16.6209 16.108 16.6669 16.1323 16.7209C16.1593 16.7722 16.1728 16.833 16.1728 16.9032C16.1728 17.014 16.1107 17.1085 15.9864 17.1868C15.8649 17.2625 15.6785 17.3003 15.4273 17.3003C15.2463 17.3003 15.0761 17.2746 14.9168 17.2233C14.7574 17.172 14.6183 17.0936 14.4994 16.9883C14.3806 16.8803 14.286 16.7452 14.2158 16.5831C14.1483 16.4184 14.1145 16.2225 14.1145 15.9956C14.1145 15.7849 14.1469 15.5999 14.2118 15.4405C14.2793 15.2785 14.3698 15.1421 14.4832 15.0313C14.5994 14.9206 14.7344 14.8368 14.8884 14.7801C15.0424 14.7234 15.2071 14.695 15.3827 14.695C15.6312 14.695 15.823 14.7355 15.9581 14.8166C16.0958 14.8976 16.1647 15.0016 16.1647 15.1286C16.1647 15.1988 16.1471 15.2596 16.112 15.3109C16.0769 15.3622 16.0364 15.4027 15.9905 15.4324C15.9202 15.3865 15.8446 15.3474 15.7636 15.3149C15.6852 15.2825 15.5934 15.2663 15.4881 15.2663ZM18.4847 16.2428C18.4847 16.4103 18.459 16.5602 18.4077 16.6925C18.3564 16.8222 18.2835 16.9316 18.1889 17.0207C18.0971 17.1099 17.9863 17.1774 17.8567 17.2233C17.727 17.2692 17.5825 17.2922 17.4231 17.2922C17.2638 17.2922 17.1193 17.2679 16.9896 17.2193C16.8599 17.1706 16.7478 17.1018 16.6533 17.0126C16.5615 16.9208 16.4899 16.81 16.4386 16.6804C16.3872 16.5507 16.3616 16.4049 16.3616 16.2428C16.3616 16.0834 16.3872 15.9389 16.4386 15.8093C16.4899 15.6796 16.5615 15.5702 16.6533 15.4811C16.7478 15.3892 16.8599 15.319 16.9896 15.2704C17.1193 15.2218 17.2638 15.1974 17.4231 15.1974C17.5825 15.1974 17.727 15.2231 17.8567 15.2744C17.9863 15.323 18.0971 15.3933 18.1889 15.4851C18.2835 15.5743 18.3564 15.6836 18.4077 15.8133C18.459 15.943 18.4847 16.0861 18.4847 16.2428ZM17.0666 16.2428C17.0666 16.4076 17.0976 16.5345 17.1598 16.6236C17.2246 16.7101 17.3137 16.7533 17.4272 16.7533C17.5406 16.7533 17.6271 16.7087 17.6865 16.6196C17.7486 16.5305 17.7797 16.4049 17.7797 16.2428C17.7797 16.0807 17.7486 15.9565 17.6865 15.87C17.6244 15.7809 17.5366 15.7363 17.4231 15.7363C17.3097 15.7363 17.2219 15.7809 17.1598 15.87C17.0976 15.9565 17.0666 16.0807 17.0666 16.2428ZM20.0687 15.9794C20.0687 15.8957 20.0443 15.8349 19.9957 15.7971C19.9498 15.7566 19.8863 15.7363 19.8053 15.7363C19.7513 15.7363 19.6973 15.7431 19.6432 15.7566C19.5919 15.7701 19.5473 15.7903 19.5095 15.8174V17.2233C19.4825 17.2314 19.4393 17.2395 19.3799 17.2476C19.3231 17.2557 19.2637 17.2598 19.2016 17.2598C19.1422 17.2598 19.0881 17.2557 19.0395 17.2476C18.9936 17.2395 18.9544 17.2233 18.922 17.199C18.8896 17.1747 18.8639 17.1423 18.845 17.1018C18.8288 17.0585 18.8207 17.0032 18.8207 16.9356V15.7201C18.8207 15.6472 18.8356 15.5878 18.8653 15.5418C18.8977 15.4959 18.9409 15.454 18.995 15.4162C19.0868 15.3514 19.2016 15.2987 19.3393 15.2582C19.4798 15.2177 19.6351 15.1974 19.8053 15.1974C20.1105 15.1974 20.3455 15.265 20.5103 15.4C20.6751 15.5324 20.7575 15.7174 20.7575 15.9551V17.2233C20.7304 17.2314 20.6872 17.2395 20.6278 17.2476C20.5711 17.2557 20.5116 17.2598 20.4495 17.2598C20.3901 17.2598 20.3361 17.2557 20.2875 17.2476C20.2415 17.2395 20.2024 17.2233 20.17 17.199C20.1375 17.1747 20.1119 17.1423 20.093 17.1018C20.0768 17.0585 20.0687 17.0032 20.0687 16.9356V15.9794ZM22.4308 15.9794C22.4308 15.8957 22.4065 15.8349 22.3579 15.7971C22.312 15.7566 22.2485 15.7363 22.1675 15.7363C22.1135 15.7363 22.0594 15.7431 22.0054 15.7566C21.9541 15.7701 21.9095 15.7903 21.8717 15.8174V17.2233C21.8447 17.2314 21.8015 17.2395 21.7421 17.2476C21.6853 17.2557 21.6259 17.2598 21.5638 17.2598C21.5044 17.2598 21.4503 17.2557 21.4017 17.2476C21.3558 17.2395 21.3166 17.2233 21.2842 17.199C21.2518 17.1747 21.2261 17.1423 21.2072 17.1018C21.191 17.0585 21.1829 17.0032 21.1829 16.9356V15.7201C21.1829 15.6472 21.1978 15.5878 21.2275 15.5418C21.2599 15.4959 21.3031 15.454 21.3571 15.4162C21.449 15.3514 21.5638 15.2987 21.7015 15.2582C21.842 15.2177 21.9973 15.1974 22.1675 15.1974C22.4727 15.1974 22.7077 15.265 22.8725 15.4C23.0373 15.5324 23.1196 15.7174 23.1196 15.9551V17.2233C23.0926 17.2314 23.0494 17.2395 22.99 17.2476C22.9333 17.2557 22.8738 17.2598 22.8117 17.2598C22.7523 17.2598 22.6983 17.2557 22.6496 17.2476C22.6037 17.2395 22.5646 17.2233 22.5321 17.199C22.4997 17.1747 22.4741 17.1423 22.4552 17.1018C22.439 17.0585 22.4308 17.0032 22.4308 16.9356V15.9794ZM24.5864 17.2922C24.427 17.2922 24.2785 17.2706 24.1407 17.2274C24.0057 17.1814 23.8868 17.1139 23.7842 17.0248C23.6842 16.9356 23.6045 16.8235 23.5451 16.6885C23.4884 16.5534 23.46 16.3954 23.46 16.2144C23.46 16.0361 23.4884 15.8835 23.5451 15.7566C23.6045 15.6269 23.6815 15.5216 23.7761 15.4405C23.8706 15.3568 23.9786 15.296 24.1002 15.2582C24.2217 15.2177 24.346 15.1974 24.473 15.1974C24.6161 15.1974 24.7458 15.219 24.8619 15.2623C24.9808 15.3055 25.0821 15.3649 25.1658 15.4405C25.2522 15.5162 25.3184 15.6067 25.3643 15.712C25.413 15.8174 25.4373 15.9322 25.4373 16.0564C25.4373 16.1482 25.4116 16.2185 25.3603 16.2671C25.309 16.3157 25.2374 16.3468 25.1455 16.3603L24.1448 16.5102C24.1745 16.5993 24.2352 16.6669 24.3271 16.7128C24.4189 16.756 24.5243 16.7776 24.6431 16.7776C24.7539 16.7776 24.8579 16.7641 24.9551 16.7371C25.055 16.7074 25.1361 16.6736 25.1982 16.6358C25.2414 16.6628 25.2779 16.7006 25.3076 16.7493C25.3373 16.7979 25.3522 16.8492 25.3522 16.9032C25.3522 17.0248 25.2955 17.1153 25.182 17.1747C25.0956 17.2206 24.9983 17.2517 24.8903 17.2679C24.7822 17.2841 24.6809 17.2922 24.5864 17.2922ZM24.473 15.6999C24.4081 15.6999 24.3514 15.7107 24.3028 15.7323C24.2569 15.7539 24.219 15.7822 24.1893 15.8174C24.1596 15.8498 24.1367 15.8876 24.1204 15.9308C24.1069 15.9713 24.0988 16.0132 24.0961 16.0564L24.789 15.943C24.7809 15.8889 24.7512 15.8349 24.6998 15.7809C24.6485 15.7269 24.5729 15.6999 24.473 15.6999ZM26.879 15.7404C26.8115 15.7404 26.7466 15.7512 26.6845 15.7728C26.6251 15.7944 26.5724 15.8268 26.5265 15.87C26.4833 15.9105 26.4481 15.9619 26.4211 16.024C26.3941 16.0861 26.3806 16.1591 26.3806 16.2428C26.3806 16.4103 26.4279 16.5359 26.5224 16.6196C26.6197 16.7033 26.7372 16.7452 26.8749 16.7452C26.956 16.7452 27.0262 16.7357 27.0856 16.7168C27.145 16.6979 27.1977 16.6777 27.2436 16.6561C27.2977 16.6939 27.3382 16.7357 27.3652 16.7817C27.3922 16.8249 27.4057 16.8776 27.4057 16.9397C27.4057 17.0504 27.353 17.1369 27.2477 17.199C27.1423 17.2584 26.9965 17.2881 26.8101 17.2881C26.6399 17.2881 26.486 17.2638 26.3482 17.2152C26.2104 17.1639 26.0916 17.0936 25.9917 17.0045C25.8944 16.9127 25.8188 16.8033 25.7648 16.6763C25.7107 16.5494 25.6837 16.4089 25.6837 16.2549C25.6837 16.0767 25.7121 15.9213 25.7688 15.789C25.8282 15.6539 25.9079 15.5432 26.0079 15.4568C26.1078 15.3703 26.2226 15.3055 26.3523 15.2623C26.4846 15.219 26.6237 15.1974 26.7696 15.1974C26.9641 15.1974 27.114 15.2326 27.2193 15.3028C27.3247 15.373 27.3773 15.4635 27.3773 15.5743C27.3773 15.6256 27.3652 15.6742 27.3409 15.7201C27.3166 15.7633 27.2882 15.8011 27.2558 15.8336C27.2099 15.812 27.1545 15.7917 27.0897 15.7728C27.0248 15.7512 26.9546 15.7404 26.879 15.7404ZM28.4399 16.5507C28.4399 16.6209 28.4615 16.6709 28.5048 16.7006C28.5507 16.7303 28.6142 16.7452 28.6952 16.7452C28.7357 16.7452 28.7776 16.7425 28.8208 16.7371C28.864 16.729 28.9018 16.7195 28.9343 16.7087C28.9586 16.7384 28.9788 16.7722 28.995 16.81C29.0139 16.8451 29.0234 16.8884 29.0234 16.9397C29.0234 17.0423 28.9842 17.1261 28.9059 17.1909C28.8303 17.2557 28.6952 17.2881 28.5007 17.2881C28.263 17.2881 28.0793 17.2341 27.9497 17.1261C27.8227 17.018 27.7593 16.8424 27.7593 16.5993V14.8652C27.789 14.8571 27.8308 14.849 27.8849 14.8409C27.9416 14.8301 28.001 14.8247 28.0631 14.8247C28.182 14.8247 28.2738 14.8463 28.3386 14.8895C28.4062 14.93 28.4399 15.0178 28.4399 15.1529V15.4122H28.9707C28.9869 15.4419 29.0018 15.4797 29.0153 15.5256C29.0315 15.5688 29.0396 15.6175 29.0396 15.6715C29.0396 15.766 29.018 15.8349 28.9748 15.8781C28.9343 15.9186 28.8789 15.9389 28.8086 15.9389H28.4399V16.5507Z" fill="url(#paint1_linear_184_25)"/>
<g filter="url(#filter0_i_184_25)">
<path d="M10.2261 8.65625C12.177 8.65636 13.9503 9.40907 15.271 10.6367L13.2622 12.4795C12.4459 11.7834 11.3851 11.3623 10.2251 11.3623C7.64779 11.3625 5.5591 13.4385 5.55908 16C5.55801 16.7619 5.74655 17.5127 6.10791 18.1846L5.55908 20.6387L8.02783 20.0928C8.70378 20.4518 9.45865 20.6397 10.2251 20.6387C11.8532 20.6387 13.2856 19.8087 14.1206 18.5527L16.6011 19.709C15.3181 21.8826 12.9449 23.3436 10.2261 23.3438C6.14512 23.3438 2.83643 20.0558 2.83643 16C2.83643 11.9442 6.14512 8.65625 10.2261 8.65625Z" fill="#25D366"/>
</g>
<path d="M24.1184 18.3839C24.2146 18.3831 24.3108 18.3824 24.407 18.382C24.4518 18.3818 24.4966 18.3815 24.5414 18.3811C24.5847 18.3807 24.628 18.3804 24.6713 18.3803C24.6955 18.3802 24.7198 18.38 24.7441 18.3797C24.948 18.3796 25.1249 18.4384 25.2745 18.5816C25.4132 18.7321 25.4929 18.9173 25.4896 19.1216C25.473 19.3252 25.3944 19.5062 25.2447 19.6467C25.028 19.8286 24.7996 19.8371 24.5286 19.8309C24.5286 19.9874 24.5286 20.1438 24.5286 20.305C24.3932 20.305 24.2579 20.305 24.1184 20.305C24.1184 20.0086 24.1184 19.7122 24.1184 19.4068C24.4649 19.4045 24.4649 19.4045 24.5735 19.4042C24.6023 19.4039 24.631 19.4035 24.6598 19.4032C24.6818 19.4032 24.6818 19.4032 24.7042 19.4033C24.8065 19.4016 24.8923 19.3836 24.9712 19.3144C25.0364 19.242 25.0586 19.1634 25.0558 19.0681C25.0448 18.9922 25.01 18.9232 24.9535 18.8712C24.8545 18.8069 24.7679 18.8023 24.6525 18.8016C24.6295 18.8013 24.6295 18.8013 24.6061 18.801C24.5575 18.8003 24.5088 18.7999 24.4602 18.7995C24.4271 18.7991 24.3941 18.7986 24.361 18.7982C24.2801 18.7971 24.1993 18.7963 24.1184 18.7956C24.1184 18.6597 24.1184 18.5239 24.1184 18.3839Z" fill="#01A1E0"/>
<path d="M25.5975 17.7726C25.737 17.7726 25.8764 17.7726 26.0201 17.7726C26.0201 18.4601 26.0201 19.1476 26.0201 19.8559C25.8807 19.8559 25.7412 19.8559 25.5975 19.8559C25.5975 19.1684 25.5975 18.4809 25.5975 17.7726Z" fill="#01A1E0"/>
<path d="M26.1569 18.3465C26.2963 18.3465 26.4358 18.3465 26.5795 18.3465C26.5799 18.4111 26.5804 18.4756 26.5809 18.5422C26.5812 18.5832 26.5816 18.6243 26.5821 18.6653C26.5827 18.7304 26.5834 18.7954 26.5838 18.8605C26.5841 18.913 26.5846 18.9655 26.5852 19.018C26.5854 19.038 26.5856 19.0579 26.5856 19.0779C26.5862 19.1977 26.5873 19.2945 26.6564 19.3975C26.7383 19.4778 26.8129 19.4894 26.9246 19.4884C27.0215 19.4843 27.0691 19.4519 27.1365 19.3842C27.2113 19.2748 27.2068 19.1658 27.2073 19.0384C27.2075 19.0184 27.2077 18.9984 27.208 18.9784C27.2086 18.9261 27.2089 18.8738 27.2093 18.8214C27.2097 18.7585 27.2104 18.6955 27.2111 18.6326C27.212 18.5372 27.2127 18.4418 27.2134 18.3465C27.3487 18.3465 27.4841 18.3465 27.6235 18.3465C27.625 18.4699 27.6261 18.5933 27.6268 18.7167C27.6271 18.7741 27.6275 18.8314 27.6282 18.8887C27.6289 18.9442 27.6293 18.9997 27.6294 19.0552C27.6296 19.0762 27.6298 19.0972 27.6301 19.1182C27.6337 19.3477 27.5828 19.5437 27.4216 19.7156C27.2426 19.8857 27.0497 19.9247 26.812 19.9218C26.7316 19.9191 26.6642 19.9041 26.5919 19.8684C26.5822 19.8638 26.5725 19.8593 26.5626 19.8547C26.3859 19.7645 26.2618 19.6231 26.1938 19.4367C26.1574 19.3089 26.1535 19.1874 26.1544 19.0555C26.1545 19.035 26.1545 19.0144 26.1545 18.9939C26.1546 18.9403 26.1549 18.8867 26.1552 18.8331C26.1555 18.7686 26.1556 18.704 26.1557 18.6395C26.156 18.5418 26.1564 18.4442 26.1569 18.3465Z" fill="#01A1E0"/>
<path d="M28.3656 18.3416C28.3865 18.3417 28.4075 18.3418 28.4285 18.3418C28.4833 18.342 28.5381 18.3425 28.5928 18.343C28.6588 18.3437 28.7248 18.3439 28.7908 18.3442C28.8906 18.3446 28.9904 18.3456 29.0902 18.3465C29.0902 18.4864 29.0902 18.6264 29.0902 18.7706C29.0268 18.7714 28.9634 18.7721 28.898 18.7729C28.8579 18.7734 28.8178 18.7739 28.7777 18.7744C28.714 18.7753 28.6503 18.7761 28.5866 18.7768C28.5353 18.7774 28.4839 18.7781 28.4326 18.7788C28.413 18.779 28.3934 18.7792 28.3738 18.7795C28.3464 18.7798 28.3189 18.7801 28.2915 18.7805C28.2759 18.7807 28.2603 18.7809 28.2442 18.7811C28.2085 18.7806 28.2085 18.7806 28.1828 18.7956C28.1797 18.8257 28.1797 18.8257 28.1828 18.8579C28.2208 18.8834 28.2283 18.886 28.2711 18.8861C28.2864 18.8862 28.2864 18.8862 28.302 18.8863C28.3186 18.8863 28.3186 18.8863 28.3354 18.8863C28.359 18.8865 28.3826 18.8868 28.4061 18.8871C28.4431 18.8873 28.4801 18.8876 28.517 18.8876C28.7251 18.8883 28.8817 18.9024 29.0373 19.0537C29.1353 19.1594 29.1584 19.2811 29.1559 19.4213C29.1463 19.5506 29.0748 19.6551 28.9844 19.7441C28.8816 19.8256 28.7667 19.8575 28.6383 19.8573C28.6293 19.8573 28.6203 19.8573 28.611 19.8573C28.5815 19.8573 28.552 19.8572 28.5225 19.8571C28.5019 19.8571 28.4814 19.8571 28.4609 19.8571C28.4069 19.857 28.353 19.8569 28.2991 19.8567C28.2343 19.8566 28.1696 19.8565 28.1048 19.8565C28.0065 19.8563 27.9082 19.8561 27.81 19.8559C27.81 19.7159 27.81 19.576 27.81 19.4318C27.8734 19.431 27.9368 19.4302 28.0021 19.4295C28.0422 19.429 28.0823 19.4285 28.1224 19.4279C28.1861 19.4271 28.2498 19.4263 28.3135 19.4256C28.3649 19.425 28.4162 19.4243 28.4675 19.4236C28.4872 19.4234 28.5068 19.4231 28.5264 19.4229C28.5538 19.4226 28.5812 19.4222 28.6086 19.4218C28.6242 19.4217 28.6399 19.4215 28.656 19.4213C28.6916 19.4218 28.6916 19.4218 28.7173 19.4068C28.7204 19.3767 28.7204 19.3767 28.7173 19.3444C28.679 19.3188 28.6712 19.3164 28.628 19.3165C28.6175 19.3165 28.607 19.3164 28.5962 19.3164C28.5849 19.3164 28.5736 19.3165 28.562 19.3165C28.5379 19.3163 28.5137 19.3161 28.4896 19.3159C28.4517 19.3157 28.4139 19.3156 28.376 19.3157C28.1793 19.3159 28.0196 19.3039 27.8721 19.1573C27.8391 19.1178 27.8112 19.077 27.7851 19.0326C27.7806 19.0251 27.7761 19.0176 27.7715 19.0099C27.724 18.9111 27.7304 18.7555 27.7657 18.6529C27.8322 18.5145 27.9606 18.407 28.1033 18.3568C28.1893 18.3358 28.2776 18.3404 28.3656 18.3416Z" fill="#01A1E0"/>
<path d="M23.4345 18.4601C23.5685 18.4601 23.7024 18.4601 23.8404 18.4601C23.8404 18.6089 23.8404 18.7576 23.8404 18.9108C23.9855 18.9108 24.1305 18.9108 24.28 18.9108C24.28 19.0375 24.28 19.1641 24.28 19.2947C24.1349 19.2947 23.9899 19.2947 23.8404 19.2947C23.8404 19.4434 23.8404 19.5921 23.8404 19.7453C23.712 19.7453 23.5837 19.7453 23.4514 19.7453C23.4514 19.5966 23.4514 19.4479 23.4514 19.2947C23.3008 19.2947 23.1501 19.2947 22.9949 19.2947C22.9949 19.168 22.9949 19.0413 22.9949 18.9108C23.14 18.9108 23.285 18.9108 23.4345 18.9108C23.4345 18.7621 23.4345 18.6134 23.4345 18.4601Z" fill="url(#paint2_linear_184_25)"/>
<defs>
<filter id="filter0_i_184_25" x="2.83643" y="8.65625" width="13.7646" height="15.1132" filterUnits="userSpaceOnUse" color-interpolation-filters="sRGB">
<feFlood flood-opacity="0" result="BackgroundImageFix"/>
<feBlend mode="normal" in="SourceGraphic" in2="BackgroundImageFix" result="shape"/>
<feColorMatrix in="SourceAlpha" type="matrix" values="0 0 0 0 0 0 0 0 0 0 0 0 0 0 0 0 0 0 127 0" result="hardAlpha"/>
<feOffset dy="0.425725"/>
<feGaussianBlur stdDeviation="0.212863"/>
<feComposite in2="hardAlpha" operator="arithmetic" k2="-1" k3="1"/>
<feColorMatrix type="matrix" values="0 0 0 0 0 0 0 0 0 0 0 0 0 0 0 0 0 0 0.25 0"/>
<feBlend mode="normal" in2="shape" result="effect1_innerShadow_184_25"/>
</filter>
<linearGradient id="paint0_linear_184_25" x1="7.89771" y1="16.2274" x2="13.9158" y2="16.2274" gradientUnits="userSpaceOnUse">
<stop offset="0.15" stop-color="#00A1E0"/>
<stop offset="0.99" stop-color="#06A8CF"/>
</linearGradient>
<linearGradient id="paint1_linear_184_25" x1="13.9717" y1="16.2274" x2="29.1638" y2="16.2274" gradientUnits="userSpaceOnUse">
<stop offset="0.15" stop-color="#07AAC9"/>
<stop offset="1" stop-color="#25D366"/>
</linearGradient>
<linearGradient id="paint2_linear_184_25" x1="22.9949" y1="19.1027" x2="24.28" y2="19.1027" gradientUnits="userSpaceOnUse">
<stop stop-color="#01A1E0"/>
<stop offset="1" stop-color="#23D06E"/>
</linearGradient>
</defs>
</svg>
