<svg width="120" height="35" viewBox="0 0 120 35" fill="none" xmlns="http://www.w3.org/2000/svg">
<path fill-rule="evenodd" clip-rule="evenodd" d="M9.46708 13.0611C9.46708 13.0611 9.24368 7.82652 11.0054 5.27026C12.3376 3.33729 13.0563 2.82108 15.3638 1.5653C17.6713 0.309514 19.5941 0.117538 21.389 0.0125708C23.1838 -0.0923966 25.334 0.462994 27.4142 1.56641C30.0748 2.97767 32.8144 7.31377 32.8144 7.31377L23.8248 21.8737C23.8248 21.8737 21.3892 17.5535 20.7481 17.1481C20.1071 16.7428 19.5127 16.7273 18.9534 17.1481C18.41 17.557 18.3124 18.1477 18.4407 18.8085C18.5689 19.4693 22.1582 24.7891 22.1582 24.7891C22.1582 24.7891 23.1168 26.194 23.8248 26.194C24.7221 26.194 25.4913 24.7891 25.4913 24.7891L33.9682 10.8899C33.9682 10.8899 33.6459 14.9823 33.0548 17.1481C32.4959 19.1958 31.3729 20.7609 30.1223 22.4786C28.2307 25.0767 27.0238 26.1747 24.3536 27.9705C21.9177 29.6087 21.2114 30.0785 18.4567 31.1635C18.1952 31.2664 17.9418 31.3674 17.6949 31.4657L17.6944 31.4659C15.3284 32.4083 13.5588 33.113 11.0054 33.113C8.22478 33.113 6.66609 32.5684 4.22715 31.0357C2.12483 29.7146 0.591466 26.3158 0.124939 23.8835C-0.516228 20.5406 1.51902 17.6368 1.51902 17.6368C1.51902 17.6368 0.80995 16.4661 0.493501 15.7432C-0.0194111 14.5716 0.150219 13.3848 0.637715 12.261C1.02555 11.367 1.73459 10.4091 2.92919 9.74043C4.3586 8.94034 5.38415 9.19578 5.76541 9.32349C6.76304 9.65769 7.35373 10.1097 8.05694 10.8899C8.71719 11.6224 9.46708 13.0611 9.46708 13.0611ZM33.0548 3.19298C33.0548 3.19298 37.8939 3.94823 39.9773 5.90886C41.5893 7.42593 42.4014 8.45798 42.9417 10.6007C43.4784 12.7292 42.6693 16.0926 42.6693 16.0926C42.6693 16.0926 45.6576 18.3377 46.6433 20.2134C47.7409 22.3019 47.7798 23.911 47.2843 26.2162C46.7863 28.5332 45.8514 29.7173 43.9673 31.1635C42.1857 32.5309 40.832 32.9374 38.5831 32.9515C36.2863 32.966 33.199 31.0357 33.199 31.0357L37.814 24.2666C37.814 24.2666 33.6553 28.4486 30.8755 30.1755C28.8612 31.4268 27.496 31.9478 25.412 32.743L25.4082 32.7445C25.2329 32.8114 25.0526 32.8802 24.8664 32.9515C22.3952 33.8984 21.081 34.3903 18.4567 34.7396C15.8763 35.0831 11.406 34.7396 11.406 34.7396C11.406 34.7396 15.9234 34.0746 18.4407 33.113C21.3471 32.0028 22.8622 31.0695 25.4913 29.4092C27.9692 27.8444 29.1248 27.0557 31.1479 24.939L31.4258 24.6486C33.0881 22.9124 34.2723 21.6757 35.3623 19.4471C35.4506 19.2664 35.5373 19.0905 35.6219 18.9186L35.6226 18.9171C36.7408 16.6466 37.5142 15.076 37.4134 12.4225C37.3348 10.3548 36.9444 9.15829 36.0032 7.31377C35.1457 5.63299 33.0548 3.19298 33.0548 3.19298ZM4.21084 16.045C4.21084 15.6619 4.59542 14.8956 5.49278 14.8956C6.39014 14.8956 6.90291 15.7896 6.90291 15.7896L10.8769 22.431C10.8769 22.431 14.4664 16.3797 14.8509 15.7896C15.2355 15.1995 15.5311 14.8628 16.1329 14.8275C16.769 14.7903 17.4148 15.4064 17.4148 16.045V24.9854C17.4148 25.5563 16.5454 26.2248 16.0047 26.1949C15.5048 26.1673 14.7227 25.624 14.7227 24.9854C14.7227 24.3468 14.8509 20.691 14.8509 20.691L12.1589 24.9854C12.1589 24.9854 11.501 26.2148 10.8769 26.1829C10.2921 26.1531 9.72318 24.9854 9.72318 24.9854L7.03111 20.691V24.9854C7.03111 25.7517 6.27808 26.1829 5.63712 26.1829C4.99617 26.1829 4.21083 25.5563 4.21084 24.9854V16.045Z" fill="#00CCFF"/>
<path fill-rule="evenodd" clip-rule="evenodd" d="M97.9674 14.6891V23.3802H107.956C107.956 23.3802 108.342 23.3256 108.469 23.1459C108.586 22.9791 108.534 22.6284 108.534 22.6284C108.472 21.9828 108.365 21.0628 108.212 20.4545C108.069 19.8808 107.828 19.1764 107.188 18.0122C106.793 17.2948 106.035 16.6195 105.267 16.109C104.114 15.3432 103.755 15.2282 102.578 14.9557C102.53 14.9448 102.481 14.9328 102.429 14.9202L102.429 14.9202C102.06 14.8303 101.555 14.7077 100.657 14.6881C99.6321 14.6657 97.9674 14.6891 97.9674 14.6891ZM54.4258 16.8619H61.7255C62.2377 16.8619 62.75 16.3581 62.75 15.7755C62.75 15.1929 62.2377 14.6891 61.7255 14.6891H53.1452C53.1452 14.6891 52.6863 14.6516 52.5048 14.842C52.3507 15.0037 52.3768 15.484 52.3768 15.484L52.3768 22.6383C52.3768 22.6383 52.343 23.1233 52.5048 23.2774C52.6666 23.4315 53.1452 23.3802 53.1452 23.3802H61.7255C62.3092 23.3802 62.75 22.8765 62.75 22.2939C62.75 21.7112 62.3092 21.2075 61.7255 21.2075H54.4258V16.8619ZM94.7658 21.2075V15.471C94.7658 15.471 94.6377 14.6891 95.8544 14.6891C96.9429 14.6891 96.9429 15.469 96.9429 15.469V22.6284C96.9429 22.6284 96.976 23.1065 96.8147 23.2674C96.645 23.4368 96.1744 23.3952 96.1744 23.3952L86.9538 23.3802C86.9538 23.3802 86.6977 23.3888 86.4416 23.1396C86.1855 22.8904 86.1855 22.6284 86.1855 22.6284L86.1856 15.469C86.1856 15.469 86.1855 14.7191 87.338 14.7041C88.4906 14.6891 88.4906 15.471 88.4906 15.471L88.4907 21.2075H94.7658ZM117.817 21.2075V20.185H110.261C110.261 20.185 109.914 20.1993 109.749 20.0784C109.569 19.9461 109.493 19.5672 109.493 19.5672L109.493 15.4772C109.493 15.4772 109.493 15.2216 109.749 14.966C110.005 14.7104 110.261 14.6891 110.261 14.6891L119.226 14.7104C119.226 14.7104 119.671 14.7104 119.866 14.966C119.991 15.1298 119.994 15.4772 119.994 15.4772V16.2441C119.994 16.2441 120.02 16.5485 119.738 16.7553C119.574 16.8762 119.226 16.8619 119.226 16.8619H111.542V18.0122H119.226C119.226 18.0122 119.688 17.9768 119.866 18.1613C120.043 18.3444 119.994 18.8003 119.994 18.8003V22.6284C119.994 22.6284 119.994 22.8902 119.738 23.1459C119.503 23.3802 119.226 23.3802 119.226 23.3802L110.261 23.4015C110.261 23.4015 110.005 23.4015 109.749 23.1459C109.493 22.8902 109.493 22.6284 109.493 22.6284V21.9179C109.493 21.9179 109.493 21.7399 109.749 21.4631C109.985 21.2083 110.261 21.2075 110.261 21.2075H117.817ZM65.0854 14.6888C64.7918 14.6879 64.2725 14.6862 64.1586 14.6891C64.0305 14.6924 63.8744 14.7372 63.7744 14.8419C63.6744 14.9466 63.6464 15.2253 63.6464 15.2253V22.6264C63.6464 22.6264 63.6463 23.1376 63.7744 23.2654C63.9024 23.3932 64.4147 23.3802 64.4147 23.3802H73.3791C73.3791 23.3802 73.7633 23.3932 73.8914 23.2654C74.0813 23.0758 74.0196 22.6199 74.0196 22.6199V21.8595C74.0196 21.8595 74.0647 21.4894 73.8914 21.3483C73.6938 21.1874 73.123 21.2204 73.123 21.2204L65.8235 21.2075V15.2253C65.8235 15.2253 65.8234 14.9777 65.6953 14.8419C65.5673 14.7061 65.4392 14.6899 65.1831 14.6891L65.0854 14.6888ZM74.6599 22.6199L74.6598 15.469C74.6598 15.469 74.6598 15.2114 74.9159 14.9577C75.172 14.7041 75.4281 14.6891 75.4281 14.6891H84.2732C84.2732 14.6891 84.6487 14.7041 84.9048 14.9577C85.0636 15.115 85.0329 15.6753 85.0329 15.6753V22.6264C85.0329 22.6264 85.0313 22.8832 84.9048 23.1376C84.7768 23.3952 84.3926 23.3932 84.3926 23.3932L75.4281 23.3802C75.4281 23.3802 75.174 23.3932 74.9159 23.1376C74.6598 22.884 74.6599 22.6199 74.6599 22.6199ZM76.8723 16.9225H82.997V21.1595H76.8723V16.9225ZM102.392 17.0468C101.535 16.7315 100.096 16.6729 100.096 16.6729V21.4084H106.22C106.22 21.4084 106.058 20.4676 105.71 19.7884C105.582 19.5391 105.072 18.8006 104.306 18.1683C103.633 17.6121 103.2 17.3436 102.392 17.0468Z" fill="#222222"/>
</svg>
